<svg width="121" height="120" viewBox="0 0 121 120" fill="none" xmlns="http://www.w3.org/2000/svg">
<path d="M60.5011 120C27.5266 120 0.795898 93.5611 0.795898 60.9467V59.0533C0.795898 26.4389 27.5266 0 60.5011 0C93.4756 0 120.206 26.4389 120.206 59.0533V60.9467C120.206 93.5611 93.4756 120 60.5011 120Z" fill="#F0F5FC"/>
<path d="M42.8018 117.39C11.2631 107.875 -6.50674 74.8707 3.11307 43.6764L3.67177 41.8661C13.2936 10.6699 46.6606 -6.90391 78.1993 2.61084C109.738 12.1256 127.508 45.1302 117.886 76.3244L117.327 78.1347C107.71 109.331 74.3426 126.905 42.8018 117.39Z" fill="url(#paint0_linear_901_314)"/>
<path d="M54.9164 50C54.7832 50 54.6514 49.9681 54.5298 49.903C54.2547 49.7466 54.0955 49.4469 54.1259 49.1298L54.4632 45.7593C54.5139 45.5291 54.4632 45.4436 54.4314 45.4002C54.3981 45.3568 54.3257 45.2873 54.2026 45.2873H53.4005C51.5024 45.2873 49.9575 43.7467 49.9575 41.8457V32.9067C49.9575 31.0072 51.5024 29.4652 53.4005 29.4652H68.1685C70.0681 29.4652 71.6129 31.0057 71.6129 32.9067V41.8457C71.6129 43.7453 70.0681 45.2873 68.1685 45.2873H62.4365C61.6851 45.2873 60.9467 45.5493 60.3545 46.017L55.3971 49.8364C55.2595 49.945 55.0872 50 54.9164 50ZM53.4019 31.0491C52.3783 31.0491 51.5473 31.8846 51.5473 32.9067V41.8457C51.5473 42.8679 52.3783 43.7033 53.4019 43.7033H54.2041C54.7875 43.7033 55.3261 43.9654 55.6852 44.4258C56.0428 44.8862 56.1644 45.4711 56.0225 46.0329L55.8835 47.4605L59.3801 44.7689C60.243 44.0826 61.3303 43.7033 62.4394 43.7033H68.1714C69.195 43.7033 70.029 42.8679 70.029 41.8457V32.9067C70.029 31.8846 69.1965 31.0491 68.1714 31.0491H53.4019Z" fill="#29440F"/>
<path d="M41.6111 50.4855C38.1152 50.4855 35.2705 47.6408 35.2705 44.1463C35.2705 40.6518 38.1152 37.8072 41.6111 37.8072C45.107 37.8072 47.9545 40.6518 47.9545 44.1463C47.9545 47.6408 45.1084 50.4855 41.6111 50.4855ZM41.6111 39.3593C38.9736 39.3593 36.8255 41.5074 36.8255 44.1463C36.8255 46.7838 38.9721 48.9333 41.6111 48.9333C44.2515 48.9333 46.3981 46.7853 46.3981 44.1463C46.3981 41.5074 44.2515 39.3593 41.6111 39.3593Z" fill="#29440F"/>
<path d="M50.5597 69.9881C50.361 69.9881 50.1596 69.9725 49.961 69.9427C48.2258 69.6604 46.9162 68.0458 46.9162 66.1843V59.2025C46.9162 58.774 47.2638 58.4264 47.6937 58.4264C48.1236 58.4264 48.4712 58.774 48.4712 59.2025V66.1843C48.4712 67.2896 49.2189 68.2444 50.2092 68.4061C50.8378 68.5055 51.4478 68.3409 51.926 67.9365C52.3942 67.535 52.6637 66.9533 52.6637 66.339V58.0121C52.6637 55.271 50.4348 53.0378 47.6937 53.0378H47.0595C46.7062 53.0378 46.37 53.1797 46.1146 53.4322L43.1224 56.3876C42.3775 57.114 41.173 57.1097 40.4352 56.3876L37.443 53.4322C37.189 53.1797 36.8527 53.0378 36.4966 53.0378H35.8638C33.1227 53.0378 30.8938 55.271 30.8938 58.0121V66.1857C30.8938 67.291 31.6415 68.2458 32.6318 68.4076C33.2604 68.5069 33.8704 68.3423 34.3486 67.9379C34.8168 67.5364 35.0863 66.9547 35.0863 66.3404V59.2067C35.0863 58.7782 35.4339 58.4306 35.8638 58.4306C36.2937 58.4306 36.6413 58.7782 36.6413 59.2067V66.3404C36.6413 67.4144 36.1731 68.4274 35.3545 69.1241C34.5358 69.8193 33.4462 70.1144 32.3821 69.9455C30.6469 69.6632 29.3374 68.0486 29.3374 66.1872V58.0135C29.3374 54.4154 32.2658 51.4871 35.8638 51.4871H36.4966C37.2656 51.4871 37.9892 51.785 38.5368 52.3242L41.5291 55.2795C41.6667 55.4171 41.8923 55.4214 42.0299 55.2795L45.0221 52.3242C45.5684 51.785 46.2934 51.4871 47.0595 51.4871H47.6937C51.2918 51.4871 54.2202 54.4154 54.2202 58.0135V66.3404C54.2202 67.4144 53.752 68.4274 52.9333 69.1241C52.2693 69.6859 51.428 69.9881 50.5597 69.9881Z" fill="#29440F"/>
<path d="M44.7421 89.8427C43.8568 89.8427 42.9984 89.5334 42.3188 88.9559C41.4818 88.2451 41.0022 87.2051 41.0022 86.107V72.1135C41.0022 71.685 41.3498 71.3374 41.7797 71.3374C42.2096 71.3374 42.5572 71.685 42.5572 72.1135V86.107C42.5572 86.7497 42.8367 87.3541 43.3262 87.7698C43.8213 88.1898 44.4527 88.3742 45.1096 88.2551C46.1396 88.0862 46.9157 87.0959 46.9157 85.9495V59.201C46.9157 58.7726 47.2633 58.425 47.6932 58.425C48.1231 58.425 48.4707 58.7726 48.4707 59.201V85.9495C48.4707 87.8493 47.1328 89.5007 45.3565 89.7916C45.1536 89.8228 44.9464 89.8427 44.7421 89.8427Z" fill="#29440F"/>
<path d="M38.8159 89.8426C38.6116 89.8426 38.4045 89.8242 38.2002 89.793C36.4239 89.5021 35.0859 87.8507 35.0859 85.9509V59.2024C35.0859 58.774 35.4335 58.4264 35.8634 58.4264C36.2933 58.4264 36.6409 58.774 36.6409 59.2024V85.9509C36.6409 87.0973 37.417 88.0876 38.4471 88.2564C39.0926 88.3756 39.7353 88.1912 40.2305 87.7712C40.72 87.3541 40.9995 86.7497 40.9995 86.1084V72.1149C40.9995 71.6864 41.3471 71.3388 41.777 71.3388C42.2069 71.3388 42.5545 71.6864 42.5545 72.1149V86.1084C42.5545 87.2051 42.0749 88.2451 41.2378 88.9573C40.5596 89.5334 39.7013 89.8426 38.8159 89.8426Z" fill="#29440F"/>
<path d="M79.8944 50.4855C76.3985 50.4855 73.551 47.6408 73.551 44.1463C73.551 40.6518 76.3971 37.8072 79.8944 37.8072C83.3918 37.8072 86.235 40.6518 86.235 44.1463C86.235 47.6408 83.3903 50.4855 79.8944 50.4855ZM79.8944 39.3593C77.2541 39.3593 75.1074 41.5074 75.1074 44.1463C75.1074 46.7838 77.2541 48.9333 79.8944 48.9333C82.532 48.9333 84.68 46.7853 84.68 44.1463C84.68 41.5074 82.532 39.3593 79.8944 39.3593Z" fill="#29440F"/>
<path d="M88.8414 69.9882C88.6428 69.9882 88.4413 69.9726 88.2427 69.9428C86.5075 69.6604 85.198 68.0458 85.198 66.1844V59.2025C85.198 58.7741 85.5456 58.4265 85.9755 58.4265C86.4054 58.4265 86.753 58.7741 86.753 59.2025V66.1844C86.753 67.2896 87.5007 68.2445 88.491 68.4062C89.1124 68.5055 89.7296 68.3409 90.2077 67.9366C90.6759 67.5351 90.9455 66.9534 90.9455 66.339V58.0121C90.9455 55.271 88.7166 53.0379 85.9755 53.0379H85.3427C84.9922 53.0379 84.6475 53.1826 84.3963 53.4323L81.4041 56.3876C80.6607 57.1141 79.4561 57.1098 78.7169 56.3876L75.7247 53.4323C75.4707 53.1797 75.1345 53.0379 74.7798 53.0379H74.1456C71.4059 53.0379 69.177 55.271 69.177 58.0121V66.1858C69.177 67.291 69.9218 68.2459 70.9122 68.4076C71.5336 68.5069 72.1508 68.3424 72.6289 67.938C73.0971 67.5365 73.3667 66.9548 73.3667 66.3404V59.2068C73.3667 58.7783 73.7143 58.4307 74.1442 58.4307C74.5741 58.4307 74.9217 58.7783 74.9217 59.2068V66.3404C74.9217 67.4145 74.4535 68.4275 73.6348 69.1241C72.819 69.8193 71.7251 70.1144 70.6624 69.9456C68.9273 69.6633 67.6191 68.0487 67.6191 66.1872V58.0136C67.6191 54.4155 70.5461 51.4871 74.1442 51.4871H74.7784C75.5445 51.4871 76.2695 51.7851 76.8157 52.3242L79.808 55.2795C79.947 55.4172 80.1726 55.4214 80.3088 55.2795L83.301 52.3242C83.8473 51.7851 84.5723 51.4871 85.3413 51.4871H85.974C89.5721 51.4871 92.5005 54.4155 92.5005 58.0136V66.3404C92.5005 67.4145 92.0323 68.4275 91.2136 69.1241C90.5497 69.686 89.7097 69.9882 88.8414 69.9882Z" fill="#29440F"/>
<path d="M83.0244 89.8427C82.139 89.8427 81.2807 89.5334 80.6011 88.956C79.764 88.2452 79.2844 87.2052 79.2844 86.107V72.1135C79.2844 71.6851 79.632 71.3375 80.0619 71.3375C80.4918 71.3375 80.8394 71.6851 80.8394 72.1135V86.107C80.8394 86.7498 81.1189 87.3542 81.6084 87.7699C82.1036 88.1898 82.7349 88.3743 83.3918 88.2551C84.4219 88.0863 85.1979 87.096 85.1979 85.9496V59.2011C85.1979 58.7726 85.5455 58.425 85.9754 58.425C86.4053 58.425 86.7529 58.7726 86.7529 59.2011V85.9496C86.7529 87.8493 85.415 89.5008 83.6387 89.7916C83.4344 89.8229 83.2287 89.8427 83.0244 89.8427Z" fill="#29440F"/>
<path d="M77.0982 89.8427C76.8939 89.8427 76.6867 89.8242 76.4824 89.793C74.7061 89.5022 73.3682 87.8507 73.3682 85.951V59.2025C73.3682 58.774 73.7158 58.4264 74.1457 58.4264C74.5756 58.4264 74.9232 58.774 74.9232 59.2025V85.951C74.9232 87.0974 75.6992 88.0877 76.7321 88.2565C77.3777 88.3757 78.019 88.1912 78.5141 87.7713C79.0036 87.3541 79.2831 86.7497 79.2831 86.1084V72.1149C79.2831 71.6864 79.6307 71.3388 80.0606 71.3388C80.4905 71.3388 80.8381 71.6864 80.8381 72.1149V86.1084C80.8381 87.2052 80.3585 88.2451 79.5215 88.9574C78.8433 89.5334 77.9835 89.8427 77.0982 89.8427Z" fill="#29440F"/>
<path d="M58.1084 41L62.4104 34.7H63.7064L59.4044 41H58.1084ZM58.6844 38.111C58.3784 38.111 58.1024 38.042 57.8564 37.904C57.6104 37.766 57.4184 37.568 57.2804 37.31C57.1424 37.046 57.0734 36.731 57.0734 36.365C57.0734 35.999 57.1424 35.687 57.2804 35.429C57.4184 35.171 57.6104 34.973 57.8564 34.835C58.1024 34.691 58.3784 34.619 58.6844 34.619C58.9964 34.619 59.2724 34.691 59.5124 34.835C59.7584 34.973 59.9504 35.171 60.0884 35.429C60.2324 35.687 60.3044 35.999 60.3044 36.365C60.3044 36.725 60.2324 37.037 60.0884 37.301C59.9504 37.565 59.7584 37.766 59.5124 37.904C59.2724 38.042 58.9964 38.111 58.6844 38.111ZM58.6934 37.256C58.8434 37.256 58.9664 37.187 59.0624 37.049C59.1644 36.911 59.2154 36.683 59.2154 36.365C59.2154 36.047 59.1644 35.819 59.0624 35.681C58.9664 35.543 58.8434 35.474 58.6934 35.474C58.5434 35.474 58.4144 35.543 58.3064 35.681C58.2044 35.819 58.1534 36.047 58.1534 36.365C58.1534 36.683 58.2044 36.911 58.3064 37.049C58.4144 37.187 58.5434 37.256 58.6934 37.256ZM63.1304 41.081C62.8184 41.081 62.5394 41.012 62.2934 40.874C62.0534 40.736 61.8644 40.538 61.7264 40.28C61.5884 40.016 61.5194 39.701 61.5194 39.335C61.5194 38.969 61.5884 38.657 61.7264 38.399C61.8644 38.141 62.0534 37.943 62.2934 37.805C62.5394 37.661 62.8184 37.589 63.1304 37.589C63.4424 37.589 63.7184 37.661 63.9584 37.805C64.2044 37.943 64.3964 38.141 64.5344 38.399C64.6784 38.657 64.7504 38.969 64.7504 39.335C64.7504 39.701 64.6784 40.016 64.5344 40.28C64.3964 40.538 64.2044 40.736 63.9584 40.874C63.7184 41.012 63.4424 41.081 63.1304 41.081ZM63.1304 40.226C63.2804 40.226 63.4064 40.157 63.5084 40.019C63.6104 39.881 63.6614 39.653 63.6614 39.335C63.6614 39.017 63.6104 38.789 63.5084 38.651C63.4064 38.513 63.2804 38.444 63.1304 38.444C62.9864 38.444 62.8604 38.513 62.7524 38.651C62.6504 38.789 62.5994 39.017 62.5994 39.335C62.5994 39.653 62.6504 39.881 62.7524 40.019C62.8604 40.157 62.9864 40.226 63.1304 40.226Z" fill="#29440F"/>
<defs>
<linearGradient id="paint0_linear_901_314" x1="-20.3838" y1="15.7377" x2="103.543" y2="141.033" gradientUnits="userSpaceOnUse">
<stop stop-color="#DDDDDD"/>
<stop offset="1" stop-color="#FCFEFF"/>
</linearGradient>
</defs>
</svg>
