<svg width="121" height="120" viewBox="0 0 121 120" fill="none" xmlns="http://www.w3.org/2000/svg">
<path d="M60.5011 120C27.5266 120 0.795898 93.5611 0.795898 60.9467V59.0533C0.795898 26.4389 27.5266 0 60.5011 0C93.4756 0 120.206 26.4389 120.206 59.0533V60.9467C120.206 93.5611 93.4756 120 60.5011 120Z" fill="#F0F5FC"/>
<path d="M42.8018 117.39C11.2631 107.875 -6.50674 74.8707 3.11307 43.6764L3.67177 41.8661C13.2936 10.6699 46.6606 -6.90391 78.1993 2.61084C109.738 12.1256 127.508 45.1302 117.886 76.3244L117.327 78.1347C107.71 109.331 74.3426 126.905 42.8018 117.39Z" fill="url(#paint0_linear_901_1529)"/>
<path d="M76.6855 93.3236C75.9334 93.3236 75.1858 93.0901 74.5484 92.6297C73.418 91.8201 72.8654 90.4684 73.1016 89.1077L74.0371 83.7193C74.1449 83.0979 73.9362 82.4629 73.4777 82.0206L69.5202 78.2038C68.5205 77.24 68.1673 75.8248 68.5984 74.5117C69.0295 73.1987 70.1552 72.2597 71.5379 72.0602L77.0087 71.2755C77.6415 71.1848 78.1896 70.7924 78.4693 70.2255L80.9158 65.3201C81.5326 64.0818 82.7846 63.313 84.181 63.313C85.5773 63.313 86.8269 64.0818 87.446 65.3201L89.8926 70.2232C90.1746 70.7902 90.7203 71.1825 91.3554 71.2732L96.8263 72.0579C98.2066 72.2575 99.3324 73.1964 99.7657 74.5095C100.197 75.8226 99.8437 77.2377 98.8463 78.1993L94.8865 82.0184C94.4279 82.4583 94.2193 83.0933 94.327 83.717L95.2626 89.1054C95.4987 90.4661 94.9438 91.8155 93.8134 92.6274C92.6853 93.4393 91.2156 93.5436 89.9797 92.9018L85.0866 90.3573C84.5248 90.0647 83.8461 90.0647 83.2798 90.3573L78.3868 92.9018C77.8457 93.1853 77.2633 93.3236 76.6855 93.3236ZM84.181 64.9981C83.4243 64.9981 82.7754 65.3972 82.4407 66.0685L79.9941 70.9716C79.4644 72.033 78.4395 72.77 77.2541 72.9401L71.7832 73.7248C71.0357 73.8314 70.4487 74.3213 70.2149 75.0311C69.9833 75.7409 70.1667 76.478 70.7078 76.9996L74.6654 80.8164C75.523 81.6442 75.9127 82.8348 75.7132 84.0027L74.7777 89.3934C74.6493 90.1305 74.9383 90.8313 75.5482 91.2712C76.1604 91.7089 76.9262 91.7633 77.5935 91.4186L82.4865 88.8741C83.5504 88.3207 84.8138 88.3207 85.8754 88.8741L90.7684 91.4186C91.4357 91.7656 92.2015 91.7112 92.8137 91.2712C93.4259 90.8313 93.7125 90.1305 93.5864 89.3934L92.6509 84.005C92.4491 82.8348 92.8412 81.6442 93.6987 80.8164L97.6586 76.9996C98.1997 76.478 98.3832 75.7432 98.1493 75.0311C97.9154 74.3213 97.3308 73.8314 96.581 73.7248L91.11 72.9401C89.9223 72.7677 88.8997 72.033 88.3701 70.9693L85.9236 66.0662C85.5865 65.3972 84.9353 64.9981 84.181 64.9981Z" fill="#29440F"/>
<path d="M84.1695 60.782C83.6995 60.782 83.3188 60.4055 83.3188 59.9406V44.2493C83.3188 43.7844 83.6995 43.4079 84.1695 43.4079C84.6395 43.4079 85.0203 43.7844 85.0203 44.2493V59.9406C85.018 60.4055 84.6373 60.782 84.1695 60.782Z" fill="#29440F"/>
<path d="M69.6029 90.3708H42.4136C39.0431 90.3708 36.3008 87.6584 36.3008 84.3247V35.5543C36.3008 32.2206 39.0431 29.5082 42.4136 29.5082H70.1165C70.5866 29.5082 70.9672 29.8847 70.9672 30.3496C70.9672 30.8145 70.5866 31.191 70.1165 31.191H42.4136C39.9809 31.191 37.9998 33.1504 37.9998 35.5566V84.3269C37.9998 86.7331 39.9809 88.6926 42.4136 88.6926H69.6029C70.0729 88.6926 70.4535 89.069 70.4535 89.5339C70.4512 89.9943 70.0706 90.3708 69.6029 90.3708Z" fill="#29440F"/>
<path d="M84.1698 45.0906H70.1143C69.6443 45.0906 69.2637 44.7141 69.2637 44.2492V30.3472C69.2637 30.007 69.4723 29.7009 69.7888 29.5716C70.1075 29.4446 70.4698 29.5126 70.7151 29.753L84.7705 43.655C85.0136 43.8954 85.087 44.2583 84.954 44.5712C84.8233 44.8842 84.5114 45.0906 84.1698 45.0906ZM70.965 43.4078H82.1177L70.965 32.3769V43.4078Z" fill="#29440F"/>
<path d="M75.7022 51.8989H46.3668C45.8967 51.8989 45.5161 51.5224 45.5161 51.0575C45.5161 50.5926 45.8967 50.2161 46.3668 50.2161H75.7022C76.1722 50.2161 76.5528 50.5926 76.5528 51.0575C76.5528 51.5247 76.1722 51.8989 75.7022 51.8989Z" fill="#29440F"/>
<path d="M73.2742 61.5373H48.7952C48.3252 61.5373 47.9446 61.1608 47.9446 60.6959C47.9446 60.231 48.3252 59.8545 48.7952 59.8545H73.272C73.742 59.8545 74.1226 60.231 74.1226 60.6959C74.1249 61.1608 73.7442 61.5373 73.2742 61.5373Z" fill="#29440F"/>
<path d="M68.19 71.1757H44.7474C44.2774 71.1757 43.8967 70.7992 43.8967 70.3343C43.8967 69.8694 44.2774 69.4929 44.7474 69.4929H68.19C68.66 69.4929 69.0407 69.8694 69.0407 70.3343C69.0407 70.7992 68.66 71.1757 68.19 71.1757Z" fill="#29440F"/>
<path d="M66.3676 80.8141H51.223C50.753 80.8141 50.3723 80.4376 50.3723 79.9727C50.3723 79.5078 50.753 79.1313 51.223 79.1313H66.3676C66.8377 79.1313 67.2183 79.5078 67.2183 79.9727C67.2183 80.4376 66.8377 80.8141 66.3676 80.8141Z" fill="#29440F"/>
<defs>
<linearGradient id="paint0_linear_901_1529" x1="-20.3838" y1="15.7377" x2="103.543" y2="141.033" gradientUnits="userSpaceOnUse">
<stop stop-color="#DDDDDD"/>
<stop offset="1" stop-color="#FCFEFF"/>
</linearGradient>
</defs>
</svg>
