<svg width="121" height="120" viewBox="0 0 121 120" fill="none" xmlns="http://www.w3.org/2000/svg">
<path d="M60.5011 120C27.5266 120 0.795898 93.5611 0.795898 60.9467V59.0533C0.795898 26.4389 27.5266 0 60.5011 0C93.4756 0 120.206 26.4389 120.206 59.0533V60.9467C120.206 93.5611 93.4756 120 60.5011 120Z" fill="#F0F5FC"/>
<path d="M42.8018 117.39C11.2631 107.875 -6.50674 74.8707 3.11307 43.6764L3.67177 41.8661C13.2936 10.6699 46.6606 -6.90391 78.1993 2.61084C109.738 12.1256 127.508 45.1301 117.886 76.3244L117.327 78.1347C107.71 109.331 74.3426 126.905 42.8018 117.39Z" fill="url(#paint0_linear_901_465)"/>
<path d="M41.0781 84.8019V82.5199C39.5511 82.494 37.9838 82.1332 36.8058 81.5895C36.2718 81.3427 36.0414 80.7264 36.2404 80.1896L36.2491 80.1654C36.4812 79.5423 37.2142 79.2264 37.8372 79.5043C38.9123 79.9807 40.2125 80.307 41.5842 80.307C43.9839 80.307 45.607 78.9709 45.607 77.1118C45.607 75.3201 44.2894 74.2119 41.7884 73.2331C38.3416 71.9299 36.2124 70.4298 36.2124 67.5954C36.2124 64.8905 38.2072 62.8364 41.3155 62.3479V60.0659C41.3155 59.5083 41.785 59.0561 42.3626 59.0561C42.9403 59.0561 43.4098 59.5083 43.4098 60.0659V62.2167C44.8059 62.2616 45.8967 62.5222 46.7623 62.8623C47.3592 63.097 47.6489 63.7495 47.4203 64.3313C47.1847 64.932 46.4883 65.2323 45.8723 64.9872C45.1026 64.6817 44.0537 64.4003 42.6994 64.4003C40.0973 64.4003 39.1165 65.9003 39.1165 67.2036C39.1165 68.8987 40.3678 69.7462 43.3068 70.92C46.7885 72.2889 48.546 73.984 48.546 76.884C48.546 79.4594 46.6873 81.8709 43.2056 82.425V84.8036C43.2056 85.3612 42.7361 85.8134 42.1584 85.8134H42.1253C41.5459 85.8117 41.0781 85.3595 41.0781 84.8019Z" fill="#29440F"/>
<path d="M42.3577 92.1968C31.3418 92.1968 22.3783 83.3329 22.3783 72.4373C22.3783 61.5417 31.3418 52.6779 42.3577 52.6779C53.3735 52.6779 62.337 61.5417 62.337 72.4373C62.337 83.3346 53.3735 92.1968 42.3577 92.1968ZM42.3577 54.7734C32.5093 54.7734 24.5005 62.6983 24.5005 72.4373C24.5005 82.1764 32.5093 90.1012 42.3577 90.1012C52.206 90.1012 60.2148 82.1764 60.2148 72.4373C60.2148 62.6983 52.206 54.7734 42.3577 54.7734Z" fill="#29440F"/>
<path d="M86.6502 40.1683H48.3668C46.5623 40.1683 45.0911 38.7184 45.0911 36.9335V30.4742C45.0911 28.6893 46.5623 27.2393 48.3668 27.2393H86.6502C88.4548 27.2393 89.926 28.6893 89.926 30.4742V36.9335C89.926 38.7184 88.4548 40.1683 86.6502 40.1683ZM48.3668 29.3349C47.7298 29.3349 47.2132 29.8459 47.2132 30.4742V36.9335C47.2132 37.5636 47.7298 38.0745 48.3668 38.0745H86.6502C87.2872 38.0745 87.8038 37.5636 87.8038 36.9335V30.4742C87.8038 29.8441 87.2872 29.3349 86.6502 29.3349H48.3668Z" fill="#29440F"/>
<path d="M96.675 51.0069H60.807C59.0025 51.0069 57.5312 49.5569 57.5312 47.7721V41.3127C57.5312 39.5279 59.0025 38.0728 60.807 38.0728H96.675C98.4795 38.0728 99.9473 39.5279 99.9473 41.3127V47.7721C99.949 49.5587 98.4795 51.0069 96.675 51.0069ZM60.807 40.1683C60.17 40.1683 59.6535 40.6844 59.6535 41.3145V47.7738C59.6535 48.4039 60.17 48.9148 60.807 48.9148H96.675C97.3085 48.9148 97.8251 48.4039 97.8251 47.7738V41.3145C97.8251 40.6844 97.3085 40.1683 96.675 40.1683H60.807Z" fill="#29440F"/>
<path d="M89.8595 61.8473H57.1766C56.5902 61.8473 56.1155 61.3777 56.1155 60.7995C56.1155 60.2212 56.5902 59.7517 57.1766 59.7517H89.8595C90.493 59.7517 91.0096 59.2356 91.0096 58.6055V52.1462C91.0096 51.5161 90.493 51.0052 89.8595 51.0052H52.5133C51.8763 51.0052 51.3597 51.5161 51.3597 52.1462V55.4432C51.3597 56.0214 50.885 56.491 50.2986 56.491C49.7122 56.491 49.2375 56.0214 49.2375 55.4432V52.1462C49.2375 50.3613 50.7088 48.9113 52.5133 48.9113H89.8595C91.664 48.9113 93.1318 50.3613 93.1318 52.1462V58.6055C93.1335 60.3921 91.664 61.8473 89.8595 61.8473Z" fill="#29440F"/>
<path d="M94.6014 72.6808H61.2763C60.6899 72.6808 60.2151 72.2112 60.2151 71.633C60.2151 71.0547 60.6899 70.5852 61.2763 70.5852H94.6014C95.2349 70.5852 95.7515 70.0742 95.7515 69.4442V62.9848C95.7515 62.3548 95.2349 61.8439 94.6014 61.8439H57.1767C56.5903 61.8439 56.1156 61.3743 56.1156 60.7961C56.1156 60.2178 56.5903 59.7483 57.1767 59.7483H94.6014C96.4059 59.7483 97.8737 61.1982 97.8737 62.9831V69.4425C97.8754 71.2308 96.4059 72.6808 94.6014 72.6808Z" fill="#29440F"/>
<path d="M85.105 83.5194H58.3262C57.7398 83.5194 57.2651 83.0499 57.2651 82.4716C57.2651 81.8933 57.7398 81.4238 58.3262 81.4238H85.105C85.7385 81.4238 86.2551 80.9128 86.2551 80.2828V73.8269C86.2551 73.1969 85.7385 72.6808 85.105 72.6808H61.2757C60.6893 72.6808 60.2146 72.2113 60.2146 71.633C60.2146 71.0547 60.6893 70.5852 61.2757 70.5852H85.105C86.9096 70.5852 88.3773 72.0404 88.3773 73.8252V80.2845C88.379 82.0711 86.9096 83.5194 85.105 83.5194Z" fill="#29440F"/>
<defs>
<linearGradient id="paint0_linear_901_465" x1="-20.3838" y1="15.7377" x2="103.543" y2="141.033" gradientUnits="userSpaceOnUse">
<stop stop-color="#DDDDDD"/>
<stop offset="1" stop-color="#FCFEFF"/>
</linearGradient>
</defs>
</svg>
