<svg width="121" height="120" viewBox="0 0 121 120" fill="none" xmlns="http://www.w3.org/2000/svg">
<path d="M60.5011 120C27.5266 120 0.795898 93.5611 0.795898 60.9467V59.0533C0.795898 26.4389 27.5266 0 60.5011 0C93.4756 0 120.206 26.4389 120.206 59.0533V60.9467C120.206 93.5611 93.4756 120 60.5011 120Z" fill="#F0F5FC"/>
<path d="M42.8018 117.39C11.2631 107.875 -6.50674 74.8707 3.11307 43.6764L3.67177 41.8661C13.2936 10.6699 46.6606 -6.90391 78.1993 2.61084C109.738 12.1256 127.508 45.1302 117.886 76.3244L117.327 78.1347C107.71 109.331 74.3426 126.905 42.8018 117.39Z" fill="url(#paint0_linear_901_597)"/>
<path d="M39.741 74.8459C35.4628 74.8459 31.9797 70.8994 31.9797 66.0423C31.9797 61.1852 35.4628 57.2387 39.741 57.2387C44.0192 57.2387 47.5022 61.1852 47.5022 66.0423C47.5022 70.8994 44.0208 74.8459 39.741 74.8459ZM39.741 58.9819C36.4334 58.9819 33.7438 62.1515 33.7438 66.0439C33.7438 69.9363 36.4334 73.1059 39.741 73.1059C43.0486 73.1059 45.7382 69.9363 45.7382 66.0439C45.7382 62.1515 43.0486 58.9819 39.741 58.9819Z" fill="#29440F"/>
<path d="M54.4263 89.2311C53.9386 89.2311 53.5443 88.8411 53.5443 88.3603C53.5443 82.6928 50.0564 78.5059 45.0619 78.1796C44.8559 78.1923 44.6547 78.2528 44.4937 78.4152L41.1974 81.6676C40.3942 82.4572 39.0921 82.4572 38.2841 81.6676L34.9925 78.4152C34.83 78.2528 34.6191 78.1828 34.4195 78.1796C29.4299 78.5059 25.942 82.6928 25.942 88.3603C25.942 88.8411 25.5477 89.2311 25.06 89.2311C24.5723 89.2311 24.178 88.8411 24.178 88.3603C24.178 81.7329 28.3435 76.828 34.3053 76.438C35.0183 76.3695 35.7152 76.6609 36.24 77.1798L39.5315 80.4322C39.6313 80.5262 39.855 80.5357 39.95 80.4322L43.2463 77.1798C43.7662 76.6609 44.4406 76.3727 45.1794 76.438C51.1428 76.828 55.3099 81.7313 55.3099 88.3603C55.3083 88.8395 54.914 89.2311 54.4263 89.2311Z" fill="#29440F"/>
<path d="M81.0229 48.3029C76.7447 48.3029 73.2632 44.3564 73.2632 39.4993C73.2632 34.6422 76.7447 30.6956 81.0229 30.6956C85.3011 30.6956 88.7841 34.6422 88.7841 39.4993C88.7841 44.3564 85.3011 48.3029 81.0229 48.3029ZM81.0229 32.4389C77.7185 32.4389 75.0289 35.6085 75.0289 39.5009C75.0289 43.3917 77.7185 46.5629 81.0229 46.5629C84.3305 46.5629 87.0201 43.3932 87.0201 39.5009C87.0201 35.6085 84.3305 32.4389 81.0229 32.4389Z" fill="#29440F"/>
<path d="M95.7062 62.688C95.2186 62.688 94.8242 62.298 94.8242 61.8172C94.8242 56.1498 91.3363 51.9629 86.3451 51.6365C86.1342 51.6445 85.9346 51.7097 85.7688 51.8721L82.4789 55.1198C81.6806 55.9094 80.3704 55.9094 79.5688 55.1198L76.2757 51.869C76.1131 51.7098 75.8991 51.6365 75.7011 51.6365C70.7115 51.9629 67.2235 56.1498 67.2235 61.8172C67.2235 62.298 66.8292 62.688 66.3415 62.688C65.8538 62.688 65.4595 62.298 65.4595 61.8172C65.4595 55.1898 69.6251 50.2849 75.5868 49.8949C76.2677 49.8344 76.9903 50.113 77.5167 50.6288L80.8147 53.8844C80.9145 53.9783 81.1349 53.9783 81.2315 53.8844L84.5279 50.632C85.059 50.1178 85.7752 49.8296 86.4609 49.8933C92.4243 50.2833 96.5915 55.1866 96.5915 61.8156C96.5899 62.298 96.1939 62.688 95.7062 62.688Z" fill="#29440F"/>
<path d="M76.1974 84.7082H61.6406C61.1529 84.7082 60.7585 84.3182 60.7585 83.8374C60.7585 83.3566 61.1529 82.9666 61.6406 82.9666H76.1974C78.8499 82.9666 81.0051 80.8301 81.0051 78.2081V65.587C81.0051 65.1062 81.3995 64.7162 81.8871 64.7162C82.3748 64.7162 82.7692 65.1062 82.7692 65.587V78.2081C82.7708 81.7949 79.8221 84.7082 76.1974 84.7082Z" fill="#29440F"/>
<path d="M39.7409 53.5628C39.2532 53.5628 38.8589 53.1728 38.8589 52.692V45.0091C38.8589 41.4224 41.8076 38.5091 45.4339 38.5091H67.1854C67.6731 38.5091 68.0674 38.8991 68.0674 39.3799C68.0674 39.8607 67.6731 40.2507 67.1854 40.2507H45.4339C42.7813 40.2507 40.6229 42.3871 40.6229 45.0091V52.692C40.6246 53.1728 40.2302 53.5628 39.7409 53.5628Z" fill="#29440F"/>
<path d="M39.7408 53.5628C39.4898 53.5628 39.2499 53.4593 39.0841 53.2747L34.8993 48.6579C34.5742 48.2982 34.6048 47.7489 34.9669 47.4273C35.3291 47.1058 35.8844 47.1312 36.2143 47.491L39.7425 51.3818L43.2738 47.491C43.6038 47.1312 44.1591 47.1042 44.5212 47.4273C44.8834 47.7505 44.9139 48.2982 44.5888 48.6579L40.4008 53.2747C40.2318 53.4593 39.9903 53.5628 39.7408 53.5628Z" fill="#29440F"/>
<path d="M86.0745 71.0794C85.8331 71.0794 85.5916 70.9854 85.4178 70.7912L81.8864 66.8957L78.3583 70.7912C78.0348 71.1558 77.4715 71.1781 77.1141 70.8549C76.7504 70.5381 76.7198 69.9841 77.0449 69.6243L81.2297 65.0044C81.5629 64.6351 82.21 64.6351 82.5448 65.0044L86.7329 69.6243C87.058 69.9841 87.0273 70.5333 86.6652 70.8549C86.4962 71.0061 86.2854 71.0794 86.0745 71.0794Z" fill="#29440F"/>
<defs>
<linearGradient id="paint0_linear_901_597" x1="-20.3838" y1="15.7377" x2="103.543" y2="141.033" gradientUnits="userSpaceOnUse">
<stop stop-color="#DDDDDD"/>
<stop offset="1" stop-color="#FCFEFF"/>
</linearGradient>
</defs>
</svg>
