<svg width="36" height="36" viewBox="0 0 36 36" fill="none" xmlns="http://www.w3.org/2000/svg">
<g clip-path="url(#clip0_686_1809)">
<path d="M34.0137 0H1.98631C0.889302 0 0 0.889302 0 1.98631V34.0137C0 35.1107 0.889302 36 1.98631 36H34.0137C35.1107 36 36 35.1107 36 34.0137V1.98631C36 0.889302 35.1107 0 34.0137 0Z" fill="#3D5A98"/>
<path d="M25.0246 36.4902V22.1683H29.8309L30.5496 16.5871H25.0246V13.0246C25.0246 11.409 25.4746 10.3058 27.7902 10.3058H30.7465V5.30583C29.315 5.15664 27.8764 5.0857 26.4371 5.09333C22.1809 5.09333 19.2496 7.68708 19.2496 12.4715V16.5871H14.4434V22.1683H19.2496V36.4902H25.0246Z" fill="white"/>
</g>
<defs>
<clipPath id="clip0_686_1809">
<rect width="36" height="36" fill="white"/>
</clipPath>
</defs>
</svg>
